PathFileType	4	(X/Y/Z)	/Users/itak/Documents/Research/Walk-IL/dataset/trc/00211_00009.trc
DataRate	CameraRate	NumFrames	NumMarkers	Units	OrigDataRate	OrigDataStartFrame	OrigNumFrames
100.000000	100.000000	4	53	mm	100.000000	470	627
Frame#	Time	RPSI			LPSI			L3			STRN			T10			C7			CLAV			RBAK			LBAK			LSHO			LUPA			LAEL			LAOL			LWTS			LWPS			LFRA			LIFD			LHPS			RSHO			RUPA			RAEL			RAOL			RWTS			RWPS			RFRA			RIFD			RHTS			RHPS			RBHD			LFHD			RFHD			LBHD			LHIP			RHIP			RASI			LASI			LKNE			LTHI			LANK			LTIP			LTOE			LMT1			LMT5			LHEE			RKNE			RTHI			RANK			RTIP			RTOE			RMT1			RMT5			RHEE			LHTS			
		X1	Y1	Z1	X2	Y2	Z2	X3	Y3	Z3	X4	Y4	Z4	X5	Y5	Z5	X6	Y6	Z6	X7	Y7	Z7	X8	Y8	Z8	X9	Y9	Z9	X10	Y10	Z10	X11	Y11	Z11	X12	Y12	Z12	X13	Y13	Z13	X14	Y14	Z14	X15	Y15	Z15	X16	Y16	Z16	X17	Y17	Z17	X18	Y18	Z18	X19	Y19	Z19	X20	Y20	Z20	X21	Y21	Z21	X22	Y22	Z22	X23	Y23	Z23	X24	Y24	Z24	X25	Y25	Z25	X26	Y26	Z26	X27	Y27	Z27	X28	Y28	Z28	X29	Y29	Z29	X30	Y30	Z30	X31	Y31	Z31	X32	Y32	Z32	X33	Y33	Z33	X34	Y34	Z34	X35	Y35	Z35	X36	Y36	Z36	X37	Y37	Z37	X38	Y38	Z38	X39	Y39	Z39	X40	Y40	Z40	X41	Y41	Z41	X42	Y42	Z42	X43	Y43	Z43	X44	Y44	Z44	X45	Y45	Z45	X46	Y46	Z46	X47	Y47	Z47	X48	Y48	Z48	X49	Y49	Z49	X50	Y50	Z50	X51	Y51	Z51	X52	Y52	Z52	X53	Y53	Z53	

471	4.7	409.96337890625	1043.063598632812	-163.5536041259766	402.7986450195312	1047.306030273438	-283.7324523925781	399.7645568847656	1129.643432617188	-231.5351257324219	653.0921630859375	1313.192749023438	-255.7942047119141	403.1783447265625	1253.78466796875	-213.0569763183594	466.3848266601562	1515.22216796875	-214.5464935302734	627.7801513671875	1430.175659179688	-246.9282989501953	402.3312683105469	1373.9462890625	-134.9327087402344	426.6575012207031	1480.846313476562	-319.4313049316406	502.9584350585938	1487.019165039062	-392.9265747070312	445.8578796386719	1373.855590820312	-464.299072265625	421.7592468261719	1171.291015625	-505.7412719726562	372.5592956542969	1153.783935546875	-434.7017822265625	517.5062866210938	935.03857421875	-508.1741333007812	462.1120300292969	924.4502563476562	-570.1613159179688	430.8101806640625	1065.662719726562	-535.4226684570312	517.1041870117188	740.2133178710938	-537.6347045898438	477.5127868652344	836.8280639648438	-581.0823364257812	551.944091796875	1467.981689453125	-61.47802352905273	546.8165283203125	1402.6298828125	6.648802280426025	554.777587890625	1120.995727539062	46.98720169067383	506.7838439941406	1110.84228515625	-35.77955627441406	707.6574096679688	926.469482421875	-24.42625617980957	670.1705932617188	904.8497314453125	47.89560317993164	591.2006225585938	1056.033935546875	53.36994552612305	753.6080322265625	736.515869140625	-33.86542129516602	767.2288208007812	813.0956420898438	-18.80400466918945	724.9454956054688	805.0587768554688	39.99895477294922	514.2684326171875	1672.4365234375	-172.0360870361328	710.6925659179688	1713.049560546875	-278.578857421875	716.75390625	1707.7109375	-178.7204132080078	550.4263916015625	1683.895263671875	-306.9878845214844	497.5175476074219	989.0155029296875	-430.6369323730469	513.4647827148438	1002.22607421875	-63.05293655395508	608.5003051757812	1043.31689453125	-105.8271484375	599.353515625	1034.2685546875	-386.2910461425781	674.4913330078125	525.0100708007812	-412.5200500488281	623.2160034179688	662.3123168945312	-434.4206848144531	468.3770141601562	78.21417999267578	-400.9123229980469	571.3764038085938	316.9737548828125	-417.1192932128906	679.8969116210938	54.33315277099609	-368.8760070800781	617.7570190429688	56.48915100097656	-319.6757507324219	587.792724609375	51.26308059692383	-429.7838745117188	416.0855407714844	103.6354446411133	-346.0110473632812	588.1912841796875	514.596435546875	-122.7167129516602	587.40625	782.36962890625	-74.26194000244141	510.1890869140625	30.87152099609375	-160.3334350585938	594.666259765625	394.6442565917969	-147.5929107666016	719.3663940429688	37.66378784179688	-217.8509216308594	659.5106201171875	36.66077423095703	-255.1790161132812	620.952880859375	29.51213455200195	-139.7005310058594	444.8589172363281	33.67581558227539	-215.7789459228516	538.1193237304688	836.9249877929688	-549.8414916992188	
472	4.71	412.7503967285156	1043.071044921875	-163.8772277832031	405.7875671386719	1047.420288085938	-284.0525207519531	402.6493530273438	1129.748901367188	-231.7819366455078	655.7687377929688	1313.4345703125	-255.8572387695312	405.8714599609375	1253.89013671875	-213.2798614501953	468.9606323242188	1515.370971679688	-214.7299194335938	630.4013061523438	1430.4091796875	-247.0043182373047	404.8857727050781	1374.06103515625	-135.1550140380859	429.3135070800781	1480.977172851562	-319.6479187011719	505.634765625	1487.142456054688	-393.1351013183594	448.7255249023438	1373.741455078125	-464.3250732421875	424.9439392089844	1170.937622070312	-505.1908264160156	376.2838745117188	1153.497802734375	-433.9248352050781	520.6925659179688	934.6735229492188	-507.3630981445312	465.0783386230469	923.9228515625	-569.1289672851562	433.9473571777344	1065.250366210938	-534.623291015625	520.1143798828125	739.75	-536.1907348632812	480.4053344726562	836.2247924804688	-579.8119506835938	554.4534301757812	1468.11279296875	-61.58953094482422	549.263916015625	1402.69287109375	6.427268505096436	557.7727661132812	1121.018798828125	46.55260848999023	509.6811218261719	1110.891479492188	-36.16679763793945	711.1589965820312	927.1011962890625	-25.44342803955078	673.8197021484375	905.190185546875	46.88028717041016	594.3548583984375	1056.130493164062	52.77417755126953	757.7738647460938	737.3497924804688	-35.35256958007812	771.1299438476562	813.92724609375	-20.13092613220215	728.95654296875	805.609130859375	38.70500564575195	516.9370727539062	1672.70166015625	-171.8872985839844	713.3472290039062	1713.221435546875	-278.5737609863281	719.4185180664062	1707.851806640625	-178.7289886474609	553.0693969726562	1684.134887695312	-306.9627075195312	500.7801513671875	989.4417114257812	-430.9453430175781	516.2633666992188	1002.195068359375	-63.24177551269531	611.2102661132812	1043.494018554688	-105.875	602.4326782226562	1034.72265625	-386.3638610839844	677.262939453125	525.0764770507812	-411.0406188964844	626.4144287109375	662.5256958007812	-433.3808288574219	478.343017578125	74.840576171875	-400.4729614257812	577.2439575195312	315.2554321289062	-416.181640625	689.9666748046875	54.83042144775391	-366.0760498046875	627.2941284179688	56.01908111572266	-317.5615234375	598.6197509765625	50.05133056640625	-427.9712219238281	425.0543212890625	99.33635711669922	-346.1245422363281	589.5806274414062	514.4126586914062	-122.9125747680664	589.9201049804688	782.2867431640625	-74.63869476318359	510.2337646484375	30.9284496307373	-160.3422698974609	595.7361450195312	394.507568359375	-147.7267303466797	719.4412841796875	37.63650894165039	-217.8529205322266	659.548095703125	36.67778015136719	-255.2368621826172	620.9557495117188	29.50994491577148	-139.6911468505859	444.8973083496094	33.81365585327148	-215.8026733398438	541.1200561523438	836.4068603515625	-548.777099609375	
473	4.72	415.5045166015625	1043.0439453125	-164.2708435058594	408.7694396972656	1047.5087890625	-284.4430541992188	405.508056640625	1129.810546875	-232.1023406982422	658.3887329101562	1313.67431640625	-255.8980102539062	408.51806640625	1253.9580078125	-213.5838775634766	471.4342651367188	1515.492919921875	-215.0061187744141	632.9442138671875	1430.638549804688	-247.090576171875	407.3482055664062	1374.152465820312	-135.4761199951172	431.9080810546875	1481.053588867188	-319.9713439941406	508.2922058105469	1487.215087890625	-393.4131469726562	451.6424560546875	1373.55859375	-464.4463500976562	428.29052734375	1170.508666992188	-504.7815246582031	379.9326782226562	1153.16650390625	-433.38330078125	524.002685546875	934.211181640625	-506.5121459960938	468.2569885253906	923.3099365234375	-568.150634765625	437.2676391601562	1064.76416015625	-533.933837890625	523.23681640625	739.2022705078125	-534.6737670898438	483.4879150390625	835.5319213867188	-578.554931640625	556.792724609375	1468.265258789062	-61.74909210205078	551.5037841796875	1402.76318359375	6.153617858886719	560.4979858398438	1121.047973632812	46.03060150146484	512.3650512695312	1110.969970703125	-36.65170288085938	714.390625	927.704345703125	-26.48160171508789	677.1720581054688	905.5086059570312	45.8264274597168	597.2362670898438	1056.221069335938	52.11164474487305	761.6046752929688	738.1448364257812	-36.86791229248047	774.716064453125	814.7149658203125	-21.46756362915039	732.6275634765625	806.12353515625	37.3795280456543	519.4674682617188	1672.976440429688	-171.808349609375	715.90185546875	1713.389770507812	-278.6109924316406	721.961669921875	1707.991088867188	-178.7738647460938	555.6253662109375	1684.364013671875	-307.0144653320312	504.0890197753906	989.822265625	-431.2713928222656	518.994873046875	1002.161193847656	-63.46786880493164	613.8781127929688	1043.667602539062	-105.9001846313477	605.559814453125	1035.146850585938	-386.4246826171875	679.65576171875	524.9884033203125	-409.6781005859375	629.4061889648438	662.6550903320312	-432.4123229980469	487.6764831542969	71.57400512695312	-399.8952026367188	582.580078125	313.5192565917969	-415.2402038574219	699.2792358398438	55.3052978515625	-363.1443481445312	636.1139526367188	55.57481384277344	-315.2987670898438	608.7113037109375	48.81374740600586	-425.98388671875	433.4425048828125	95.17898559570312	-346.0918273925781	590.9138793945312	514.2215576171875	-123.1066055297852	592.3729858398438	782.1681518554688	-74.97647094726562	510.2878723144531	30.99020385742188	-160.3435363769531	596.8052368164062	394.3811645507812	-147.8453063964844	719.51513671875	37.60434722900391	-217.85791015625	659.5819091796875	36.68832778930664	-255.2829437255859	620.960205078125	29.50947570800781	-139.6849975585938	444.9138488769531	33.96578979492188	-215.8365325927734	544.263427734375	835.7745361328125	-547.6268920898438	
474	4.73	418.2356872558594	1042.9794921875	-164.7317810058594	411.7508850097656	1047.572143554688	-284.9037780761719	408.3280639648438	1129.825439453125	-232.5033111572266	660.9541625976562	1313.910522460938	-255.9190979003906	411.109619140625	1253.984985351562	-213.9761657714844	473.80859375	1515.586547851562	-215.3732757568359	635.409423828125	1430.861328125	-247.1884765625	409.7237854003906	1374.215209960938	-135.8924102783203	434.4425048828125	1481.07177734375	-320.3958740234375	510.9305114746094	1487.2333984375	-393.7583312988281	454.608642578125	1373.309936523438	-464.66259765625	431.7917785644531	1170.008911132812	-504.52001953125	383.4716796875	1152.793701171875	-433.09326171875	527.4378051757812	933.6588745117188	-505.6309509277344	471.6551208496094	922.617431640625	-567.2393798828125	440.7676086425781	1064.205810546875	-533.3650512695312	526.470458984375	738.5736083984375	-533.0933227539062	486.7718505859375	834.7598876953125	-577.32763671875	558.9647216796875	1468.43310546875	-61.95632171630859	553.5468139648438	1402.839233398438	5.83390998840332	562.964111328125	1121.080200195312	45.43524932861328	514.8475341796875	1111.074584960938	-37.22007751464844	717.3511352539062	928.2733154296875	-27.53842353820801	680.23095703125	905.8006591796875	44.73854446411133	599.8541870117188	1056.302734375	51.39300537109375	765.0995483398438	738.8942260742188	-38.41170120239258	777.9850463867188	815.4528198242188	-22.81609916687012	735.958984375	806.5960083007812	36.02388000488281	521.8644409179688	1673.251831054688	-171.8151702880859	718.3538818359375	1713.554077148438	-278.6910705566406	724.380615234375	1708.131103515625	-178.8554840087891	558.0884399414062	1684.576049804688	-307.1458129882812	507.4426879882812	990.1485595703125	-431.6142883300781	521.6513671875	1002.117919921875	-63.73654937744141	616.5064086914062	1043.834106445312	-105.9107055664062	608.7356567382812	1035.535034179688	-386.4789733886719	681.6610717773438	524.7401733398438	-408.4366760253906	632.1452026367188	662.6775512695312	-431.5352783203125	496.3512573242188	68.39741516113281	-399.1842346191406	587.3862915039062	311.7611083984375	-414.3040466308594	707.8356323242188	55.74291610717773	-360.1611938476562	644.2230834960938	55.14303588867188	-312.9463500976562	618.044677734375	47.54495239257812	-423.8716735839844	441.2313232421875	91.15406799316406	-345.9078674316406	592.1823120117188	514.0238037109375	-123.2920989990234	594.7525634765625	782.0143432617188	-75.27802276611328	510.3487548828125	31.05501937866211	-160.3412780761719	597.8516235351562	394.2642822265625	-147.9487609863281	719.58349609375	37.56843948364258	-217.8663787841797	659.6104736328125	36.69204330444336	-255.3172912597656	620.9657592773438	29.51099586486816	-139.6831665039062	444.900146484375	34.13142776489258	-215.8822326660156	547.5569458007812	835.0328979492188	-546.39599609375	
